<svg xmlns="http://www.w3.org/2000/svg" width="16" height="16">
  <path d="M 2 0 C 0.892 0 0 0.892 0 2 L 0 3 L 0 11 L 0 14 C 0 15.108 0.892 16 2 16 L 10 16 L 10 14 L 2 14 L 2 11 L 4 11 L 4 10 L 2 10 L 2 8 L 4 8 L 4 7 L 2 7 L 2 5 L 5 5 L 5 4 L 2 4 L 2 3 L 2 2 L 14 2 L 14 4 L 11 4 L 11 5 L 14 5 L 14 7 L 12 7 L 12 8 L 14 8 L 14 10 L 16 10 L 16 5 L 16 2 C 16 0.892 15.108 0 14 0 L 2 0 z M 8 3 C 6.892 3 6 3.892 6 5 L 6 6 L 5.5 6 C 5.223 6 5 6.223 5 6.5 L 5 9.5 C 5 9.777 5.223 10 5.5 10 L 10.5 10 C 10.777 10 11 9.777 11 9.5 L 11 6.5 C 11 6.223 10.777 6 10.5 6 L 10 6 L 10 5 C 10 3.892 9.108 3 8 3 z M 8 4 C 8.554 4 9 4.446 9 5 L 9 6 L 7 6 L 7 5 C 7 4.446 7.446 4 8 4 z M 11 11 L 11 16 L 16 16 L 16 11 L 11 11 z M 3.5 12 C 3.223 12 3 12.223 3 12.5 C 3 12.777 3.223 13 3.5 13 C 3.777 13 4 12.777 4 12.5 C 4 12.223 3.777 12 3.5 12 z M 5.5 12 C 5.223 12 5 12.223 5 12.5 C 5 12.777 5.223 13 5.5 13 C 5.777 13 6 12.777 6 12.5 C 6 12.223 5.777 12 5.5 12 z M 7.5 12 C 7.223 12 7 12.223 7 12.5 C 7 12.777 7.223 13 7.5 13 L 9.5 13 C 9.777 13 10 12.777 10 12.5 C 10 12.223 9.777 12 9.5 12 L 7.5 12 z M 12 12 L 13 12 L 13 13 L 14 13 L 14 12 L 15 12 L 15 14 L 14 14 L 14 15 L 13 15 L 13 14 L 12 14 L 12 12 z " fill="#c0bfbc" />
</svg>
