<svg xmlns="http://www.w3.org/2000/svg" width="16" height="16">
  <path d="M 2 0 C 0.892 0 0 0.892 0 2 L 0 3 L 2 3 L 2 2 L 14 2 L 14 4 L 8 4 L 8 5 L 14 5 L 16 5 L 16 2 C 16 0.892 15.108 0 14 0 L 2 0 z M 4 4 C 2.338 4 1 5.338 1 7 C 1 8.662 2.338 10 4 10 C 5.3090826 10 6.406799 9.1646888 6.8183594 8 L 7 8 L 8 9 L 9 8 L 10 8 L 11 9 L 12 8 L 13 9 L 14 8 L 15 7 L 14 6 L 6.8183594 6 C 6.406799 4.8353112 5.3090826 4 4 4 z M 3 6 C 3.554 6 4 6.446 4 7 C 4 7.554 3.554 8 3 8 C 2.446 8 2 7.554 2 7 C 2 6.446 2.446 6 3 6 z M 7 10 L 7 11 L 10 11 L 10 10 L 7 10 z M 0 11 L 0 14 C 0 15.108 0.892 16 2 16 L 10 16 L 10 14 L 2 14 L 2 11 L 0 11 z M 11 11 L 11 16 L 16 16 L 16 11 L 11 11 z M 3.5 12 C 3.223 12 3 12.223 3 12.5 C 3 12.777 3.223 13 3.5 13 C 3.777 13 4 12.777 4 12.5 C 4 12.223 3.777 12 3.5 12 z M 5.5 12 C 5.223 12 5 12.223 5 12.5 C 5 12.777 5.223 13 5.5 13 C 5.777 13 6 12.777 6 12.5 C 6 12.223 5.777 12 5.5 12 z M 7.5 12 C 7.223 12 7 12.223 7 12.5 C 7 12.777 7.223 13 7.5 13 L 9.5 13 C 9.777 13 10 12.777 10 12.5 C 10 12.223 9.777 12 9.5 12 L 7.5 12 z M 12 12 L 13 12 L 13 13 L 14 13 L 14 12 L 15 12 L 15 14 L 14 14 L 14 15 L 13 15 L 13 14 L 12 14 L 12 12 z " fill="#c0bfbc" />
</svg>
